<svg t="1734621717098" class="icon" viewBox="0 0 1024 1024" version="1.1" xmlns="http://www.w3.org/2000/svg" p-id="1476" width="128" height="128"><path d="M569.28 406.72h-10.88v44.48h10.56c18.56 0 26.56-7.04 26.56-22.4 0-10.24-2.88-22.08-26.24-22.08z" fill="#1296db" p-id="1477"></path><path d="M704 370.24v-3.52l-2.56-5.44c-1.92-4.16-3.84-8-5.76-11.52a224 224 0 0 0-13.44-21.76l-3.84-5.12v-1.6L672 313.6c-5.12-6.08-10.56-11.52-15.68-16.64L644.16 288 640 285.44l-2.56-1.92c-5.44-4.16-11.2-8-16.64-11.2a226.56 226.56 0 0 0-20.16-10.88l-5.76-2.88L592 256l-9.6-3.52a230.72 230.72 0 0 0-42.88-10.56 233.6 233.6 0 0 0-27.52-0.64 229.76 229.76 0 0 0-27.52 1.6 224 224 0 0 0-48.96 12.8L432 256l-5.44 2.56-10.56 6.72a224 224 0 0 0-21.76 13.44l-5.12 3.84h-1.6l-7.68 6.4a227.84 227.84 0 0 0-16.64 15.68l-8 8.96-3.2 6.4-1.92 2.56c-4.16 5.44-8 11.2-11.2 16.64s-7.68 13.44-10.88 20.16l-2.88 5.76v1.92l-3.52 9.6a232 232 0 0 0-10.56 42.88 228.16 228.16 0 0 0 0 55.68 228.8 228.8 0 0 0 8.96 49.28v2.56l2.56 5.44 5.44 10.56a216.32 216.32 0 0 0 12.8 21.12l3.84 5.76 1.6 2.24 5.76 6.72a229.44 229.44 0 0 0 16.96 17.6l9.6 8.32 4.48 3.52a219.52 219.52 0 0 0 20.48 13.44 233.6 233.6 0 0 0 22.08 11.2 24.32 24.32 0 0 1 10.24 10.24L512 760.96l71.68-114.88a32 32 0 0 1 13.44-11.84 210.24 210.24 0 0 0 21.76-11.52l10.56-7.04 4.8-3.52 2.24-1.6c5.76-4.48 11.2-9.6 16.32-14.08A219.52 219.52 0 0 0 672 576l3.52-4.48 1.6-2.56 6.72-9.6a217.28 217.28 0 0 0 12.48-21.12l5.44-11.52v-1.6l2.24-5.44a229.12 229.12 0 0 0 11.84-46.08 233.6 233.6 0 0 0 0-55.36 224 224 0 0 0-11.84-48z m-219.2 175.68h-46.08v-176.32h45.12z m137.92-74.24a73.92 73.92 0 0 1-50.24 16h-13.44v58.24H512v-176.32h64c55.36 0 67.2 32 67.2 57.6a55.36 55.36 0 0 1-21.12 44.8z" fill="#1296db" p-id="1478"></path><path d="M864 0H160a160 160 0 0 0-160 160v704a160 160 0 0 0 160 160h704a160 160 0 0 0 160-160V160a160 160 0 0 0-160-160z m-107.2 520a258.56 258.56 0 0 1-133.44 156.8l-89.6 143.36a24.96 24.96 0 0 1-42.56 0l-89.92-143.36a233.6 233.6 0 0 1-40-24A254.4 254.4 0 0 1 256 462.4 256 256 0 0 1 512 192a265.28 265.28 0 0 1 55.04 6.08 256 256 0 0 1 189.44 321.92z" fill="#1296db" p-id="1479"></path></svg>